<svg xmlns="http://www.w3.org/2000/svg" viewBox="0 0 1600 900" role="img" aria-label="Cows grazing on green pasture under blue sky">
  <defs>
    <linearGradient id="sky" x1="0" y1="0" x2="0" y2="1">
      <stop offset="0%" stop-color="#7dd3fc"/>
      <stop offset="65%" stop-color="#dbeafe"/>
      <stop offset="100%" stop-color="#bbf7d0"/>
    </linearGradient>
    <linearGradient id="fieldBack" x1="0" y1="0" x2="1" y2="1">
      <stop offset="0%" stop-color="#86efac"/>
      <stop offset="100%" stop-color="#4ade80"/>
    </linearGradient>
    <linearGradient id="fieldFront" x1="0" y1="0" x2="1" y2="0">
      <stop offset="0%" stop-color="#22c55e"/>
      <stop offset="100%" stop-color="#16a34a"/>
    </linearGradient>
  </defs>

  <rect width="1600" height="900" fill="url(#sky)"/>

  <g fill="#ffffff" opacity="0.85">
    <ellipse cx="250" cy="140" rx="95" ry="42"/>
    <ellipse cx="330" cy="140" rx="75" ry="35"/>
    <ellipse cx="1180" cy="170" rx="120" ry="46"/>
    <ellipse cx="1270" cy="170" rx="90" ry="38"/>
  </g>

  <path d="M0 560 C240 470, 520 500, 780 560 C1040 620, 1320 590, 1600 520 L1600 900 L0 900 Z" fill="url(#fieldBack)"/>
  <path d="M0 680 C250 590, 600 640, 920 700 C1200 750, 1400 700, 1600 640 L1600 900 L0 900 Z" fill="url(#fieldFront)"/>

  <g transform="translate(360 520)">
    <ellipse cx="0" cy="120" rx="100" ry="24" fill="#000000" opacity="0.15"/>
    <rect x="-110" y="20" width="220" height="90" rx="35" fill="#ffffff"/>
    <circle cx="120" cy="55" r="36" fill="#ffffff"/>
    <rect x="100" y="55" width="52" height="30" rx="12" fill="#fca5a5"/>
    <rect x="-80" y="98" width="18" height="65" rx="8" fill="#111827"/>
    <rect x="-20" y="98" width="18" height="65" rx="8" fill="#111827"/>
    <rect x="40" y="98" width="18" height="65" rx="8" fill="#111827"/>
    <rect x="90" y="98" width="18" height="65" rx="8" fill="#111827"/>
    <path d="M-85 42 Q-55 5 -10 30" stroke="#111827" stroke-width="10" fill="none" stroke-linecap="round"/>
    <path d="M15 28 Q45 2 85 30" stroke="#111827" stroke-width="10" fill="none" stroke-linecap="round"/>
    <circle cx="-35" cy="58" r="18" fill="#111827"/>
    <circle cx="18" cy="72" r="22" fill="#111827"/>
    <circle cx="78" cy="48" r="15" fill="#111827"/>
    <circle cx="130" cy="45" r="4" fill="#111827"/>
    <circle cx="115" cy="45" r="4" fill="#111827"/>
  </g>

  <g transform="translate(960 560) scale(0.85)">
    <ellipse cx="0" cy="120" rx="100" ry="24" fill="#000000" opacity="0.15"/>
    <rect x="-110" y="20" width="220" height="90" rx="35" fill="#f8fafc"/>
    <circle cx="120" cy="55" r="36" fill="#f8fafc"/>
    <rect x="100" y="55" width="52" height="30" rx="12" fill="#fecaca"/>
    <rect x="-80" y="98" width="18" height="65" rx="8" fill="#1f2937"/>
    <rect x="-20" y="98" width="18" height="65" rx="8" fill="#1f2937"/>
    <rect x="40" y="98" width="18" height="65" rx="8" fill="#1f2937"/>
    <rect x="90" y="98" width="18" height="65" rx="8" fill="#1f2937"/>
    <circle cx="-50" cy="62" r="20" fill="#1f2937"/>
    <circle cx="8" cy="50" r="18" fill="#1f2937"/>
    <circle cx="65" cy="74" r="18" fill="#1f2937"/>
    <circle cx="130" cy="45" r="4" fill="#111827"/>
    <circle cx="115" cy="45" r="4" fill="#111827"/>
  </g>
</svg>
